<svg xmlns="http://www.w3.org/2000/svg" viewBox="0 0 320 220" fill="none">
  <rect width="320" height="220" rx="12" fill="#dbeafe"/>

  <!-- Document -->
  <rect x="90" y="40" width="90" height="115" rx="6" fill="white" stroke="#3b82f6" stroke-width="2"/>
  <rect x="105" y="65" width="60" height="4" rx="2" fill="#93c5fd"/>
  <rect x="105" y="78" width="60" height="4" rx="2" fill="#93c5fd"/>
  <rect x="105" y="91" width="45" height="4" rx="2" fill="#93c5fd"/>
  <rect x="105" y="110" width="55" height="4" rx="2" fill="#bfdbfe"/>
  <rect x="105" y="123" width="40" height="4" rx="2" fill="#bfdbfe"/>

  <!-- Seal -->
  <circle cx="150" cy="143" r="10" fill="#3b82f6" opacity="0.2"/>
  <circle cx="150" cy="143" r="6" fill="#3b82f6" opacity="0.4"/>

  <!-- Arrow -->
  <line x1="195" y1="97" x2="225" y2="97" stroke="#1e40af" stroke-width="2.5" stroke-linecap="round"/>
  <polygon points="225,92 235,97 225,102" fill="#1e40af"/>

  <!-- Handshake icon (simplified) -->
  <path d="M245,80 C250,75 260,75 265,80 L275,90 C278,93 278,98 275,101 L265,110 C260,115 250,115 245,110 L235,100 C232,97 232,92 235,89 Z"
        fill="#1e40af" opacity="0.15" stroke="#1e40af" stroke-width="1.5"/>
  <path d="M248,88 L255,95 M252,84 L262,94" stroke="#1e40af" stroke-width="2" stroke-linecap="round"/>

  <!-- Dollar sign badge -->
  <circle cx="270" cy="150" r="18" fill="#3b82f6"/>
  <text x="270" y="156" text-anchor="middle" fill="white" font-size="18" font-weight="bold" font-family="sans-serif">$</text>

  <!-- Label -->
  <text x="160" y="190" text-anchor="middle" fill="#1e40af" font-size="13" font-weight="700" font-family="sans-serif">LICENSING</text>
</svg>
